<svg width="18" height="18" viewBox="0 0 18 18" fill="none" xmlns="http://www.w3.org/2000/svg">
<rect width="18" height="18" rx="9" fill="#B3B4B5"/>
<g clip-path="url(#clip0_1019_100)">
<path d="M8.99967 3.16667C10.864 3.16667 12.4997 4.69383 12.4997 6.4345C12.4997 8.23875 11.0454 10.5948 8.99967 13.8201C6.95392 10.5948 5.49967 8.23875 5.49967 6.4345C5.49967 4.69383 7.13534 3.16667 8.99967 3.16667ZM8.99967 2C6.55084 2 4.33301 3.98508 4.33301 6.4345C4.33301 8.88333 6.35659 11.807 8.99967 16C11.6428 11.807 13.6663 8.88333 13.6663 6.4345C13.6663 3.98508 11.4491 2 8.99967 2V2ZM8.99967 8.41667C8.03309 8.41667 7.24967 7.63325 7.24967 6.66667C7.24967 5.70008 8.03309 4.91667 8.99967 4.91667C9.96626 4.91667 10.7497 5.70008 10.7497 6.66667C10.7497 7.63325 9.96626 8.41667 8.99967 8.41667Z" fill="#4A4E57"/>
</g>
<defs>
<clipPath id="clip0_1019_100">
<rect width="14" height="14" fill="white" transform="translate(2 2)"/>
</clipPath>
</defs>
</svg>
