<svg width="18" height="18" viewBox="0 0 18 18" fill="none" xmlns="http://www.w3.org/2000/svg">
<g clip-path="url(#clip0_1019_117)">
<path d="M0.0410156 17.9995L1.30627 13.3773C0.525516 12.0243 0.115266 10.4905 0.116016 8.91776C0.118266 4.00076 4.11952 -0.000488281 9.03577 -0.000488281C11.4215 0.000261719 13.661 0.929512 15.3455 2.61551C17.0293 4.30151 17.9563 6.54251 17.9555 8.92601C17.9533 13.8438 13.952 17.845 9.03577 17.845C7.54327 17.8443 6.07252 17.47 4.76977 16.759L0.0410156 17.9995ZM4.98877 15.1443C6.24577 15.8905 7.44577 16.3375 9.03277 16.3383C13.1188 16.3383 16.4473 13.0128 16.4495 8.92451C16.451 4.82801 13.1383 1.50701 9.03876 1.50551C4.94977 1.50551 1.62352 4.83101 1.62202 8.91851C1.62127 10.5873 2.11027 11.8368 2.93152 13.144L2.18227 15.88L4.98877 15.1443ZM13.529 11.0463C13.4735 10.9533 13.325 10.8978 13.1015 10.786C12.8788 10.6743 11.783 10.135 11.5783 10.0608C11.3743 9.98651 11.2258 9.94901 11.0765 10.1725C10.928 10.3953 10.5005 10.8978 10.3708 11.0463C10.241 11.1948 10.1105 11.2135 9.88777 11.1018C9.66502 10.99 8.94652 10.7553 8.09527 9.99551C7.43302 9.40451 6.98527 8.67476 6.85552 8.45126C6.72577 8.22851 6.84202 8.10776 6.95302 7.99676C7.05352 7.89701 7.17577 7.73651 7.28752 7.60601C7.40077 7.47701 7.43752 7.38401 7.51252 7.23476C7.58677 7.08626 7.55002 6.95576 7.49377 6.84401C7.43752 6.73301 6.99202 5.63576 6.80677 5.18951C6.62527 4.75526 6.44152 4.81376 6.30502 4.80701L5.87752 4.79951C5.72902 4.79951 5.48752 4.85501 5.28352 5.07851C5.07952 5.30201 4.50352 5.84051 4.50352 6.93776C4.50352 8.03501 5.30227 9.09476 5.41327 9.24326C5.52502 9.39176 6.98452 11.6433 9.22027 12.6085C9.75202 12.838 10.1675 12.9753 10.4908 13.078C11.0248 13.2475 11.5108 13.2235 11.8948 13.1665C12.323 13.1028 13.2133 12.6273 13.3993 12.1068C13.5853 11.5855 13.5853 11.1393 13.529 11.0463Z" fill="#B3B4B5"/>
</g>
<defs>
<clipPath id="clip0_1019_117">
<rect width="18" height="18" fill="white"/>
</clipPath>
</defs>
</svg>
